<?xml version="1.0" encoding="iso-8859-1"?>
<!-- Generator: Adobe Illustrator 22.1.0, SVG Export Plug-In . SVG Version: 6.00 Build 0)  -->
<svg version="1.1" xmlns="http://www.w3.org/2000/svg" xmlns:xlink="http://www.w3.org/1999/xlink" x="0px" y="0px"
	 viewBox="0 0 128 128" style="enable-background:new 0 0 128 128;" xml:space="preserve">
<g id="_x31_1">
	<path style="fill:#D6DBDE;" d="M102.828,67.786c-0.343,0.585-0.685,1.169-1.008,1.754H26.119c-1.472-2.701-2.822-5.443-3.951-8.266
		C10.273,31.659,33.054-0.214,64.826,0.512C99.36,1.298,120.105,37.929,102.828,67.786z"/>
	<path style="fill:#9EA7DE;" d="M89.233,91.716c4.04-5.68,7.642-11.717,11.141-17.767H27.564c3.354,6.11,7.396,11.947,11.236,17.767
		H89.233z"/>
	<path style="fill:#656360;" d="M88.014,95.748h-48.11v19.656c0,2.227,1.805,4.032,4.032,4.032h1.583v0
		c0,4.454,3.61,8.064,8.064,8.064h20.751c4.454,0,8.064-3.61,8.064-8.064v0h1.583c2.227,0,4.032-1.805,4.032-4.032V95.748z"/>
</g>
<g id="Layer_1">
</g>
</svg>
