<?xml version="1.0" encoding="iso-8859-1"?>
<!-- Generator: Adobe Illustrator 22.1.0, SVG Export Plug-In . SVG Version: 6.00 Build 0)  -->
<svg version="1.1" xmlns="http://www.w3.org/2000/svg" xmlns:xlink="http://www.w3.org/1999/xlink" x="0px" y="0px"
	 viewBox="0 0 128 128" style="enable-background:new 0 0 128 128;" xml:space="preserve">
<g id="_x31_">
	<path style="fill:#51514C;" d="M77.547,120.684h-5.765l-1.698,3.012c-1.325,2.35-3.814,3.804-6.513,3.804h-0.003
		c-2.698,0-5.187-1.454-6.513-3.804l-1.698-3.012h-5.765v-4.06h27.956V120.684z"/>
	<path style="fill:#A7A79B;" d="M77.547,113.65H49.591v-4.279h27.956V113.65z M77.547,101.939H49.591v4.279h27.956V101.939z
		 M116.134,69.363l-12.209-3.271l0.92-3.434l12.209,3.271L116.134,69.363z M11.866,69.363l-0.92-3.434l12.209-3.271l0.92,3.434
		L11.866,69.363z M104.845,44.45l-0.92-3.434l12.209-3.272l0.92,3.434L104.845,44.45z M23.155,44.45l-12.209-3.272l0.92-3.434
		l12.209,3.272L23.155,44.45z M94.82,25.247l-2.514-2.514l8.938-8.938l2.514,2.514L94.82,25.247z M33.18,25.247l-8.937-8.938
		l2.514-2.514l8.937,8.938L33.18,25.247z M76.538,13.629l-3.434-0.92L76.376,0.5l3.434,0.92L76.538,13.629z M51.462,13.629
		L48.191,1.42l3.434-0.92l3.272,12.209L51.462,13.629z"/>
	<path style="fill:#F4D100;" d="M59.802,64.141h7.535v34.934h-7.535V64.141z M63.569,19.387
		c-18.485-0.53-33.631,14.817-33.631,33.824c0,9.781,4.016,18.581,10.431,24.753c5.637,5.423,9.222,13.147,9.222,21.111h7.84V64.141
		H51.75c-4.44,0-8.051-3.612-8.051-8.051s3.612-8.051,8.051-8.051s8.052,3.612,8.052,8.051v5.681h7.535v-5.681
		c0-4.44,3.612-8.051,8.052-8.051c4.44,0,8.051,3.612,8.051,8.051s-3.612,8.051-8.051,8.051h-5.682v34.934h7.84
		c0-7.964,3.584-15.688,9.222-21.111C93.184,71.792,97.2,62.992,97.2,53.211C97.2,34.203,82.054,18.856,63.569,19.387z
		 M51.75,50.408c-3.133,0-5.681,2.549-5.681,5.681c0,3.133,2.549,5.681,5.681,5.681h5.682v-5.681
		C57.432,52.956,54.883,50.408,51.75,50.408z M75.389,61.77h-5.682v-5.681c0-3.133,2.549-5.681,5.682-5.681
		c3.133,0,5.681,2.549,5.681,5.681C81.07,59.222,78.521,61.77,75.389,61.77z"/>
</g>
<g id="Layer_1">
</g>
</svg>
