<?xml version="1.0" encoding="UTF-8"?>
<!DOCTYPE svg PUBLIC "-//W3C//DTD SVG 1.1//EN" "http://www.w3.org/Graphics/SVG/1.1/DTD/svg11.dtd">
<!-- Creator: CorelDRAW -->
<svg xmlns="http://www.w3.org/2000/svg" xml:space="preserve" width="2048px" height="2048px" style="shape-rendering:geometricPrecision; text-rendering:geometricPrecision; image-rendering:optimizeQuality; fill-rule:evenodd; clip-rule:evenodd"
viewBox="0 0 2048 2048"
 xmlns:xlink="http://www.w3.org/1999/xlink">
 <defs>
  <style type="text/css">
   <![CDATA[
    .fil2 {fill:none}
    .fil0 {fill:#212121;fill-rule:nonzero}
    .fil1 {fill:#66BB6A;fill-rule:nonzero}
   ]]>
  </style>
 </defs>
 <g id="Layer_x0020_1">
  <metadata id="CorelCorpID_0Corel-Layer"/>
  <path class="fil0" d="M404.508 404.509l0.0011811 -0.0011811c99.0036,-99.0036 228.764,-148.506 358.522,-148.506 129.757,0 259.517,49.5024 358.522,148.506l0.0011811 0.0011811c99.0036,99.0036 148.507,228.764 148.507,358.523 0,129.757 -49.5036,259.518 -148.507,358.523 -99.0048,99.0036 -228.766,148.507 -358.523,148.507 -129.758,0 -259.519,-49.5036 -358.523,-148.507l-0.0011811 -0.0011811c-99.0036,-99.0036 -148.506,-228.764 -148.506,-358.522 0,-129.758 49.5024,-259.518 148.506,-358.522l0.0011811 -0.0011811zm33.939 33.9366l-0.0011811 0.0011811 -0.0011811 0.0011811c-89.628,89.628 -134.444,207.105 -134.444,324.584 0,117.477 44.8158,234.956 134.444,324.584l0.0011811 0.0011811c89.628,89.628 207.106,134.445 324.585,134.445 117.477,0 234.955,-44.8158 324.585,-134.445 89.6292,-89.6304 134.445,-207.108 134.445,-324.585 0,-117.478 -44.817,-234.957 -134.445,-324.585l-0.0011811 -0.0011811c-89.6304,-89.6292 -207.106,-134.444 -324.584,-134.444 -117.477,0 -234.956,44.8158 -324.584,134.444z"/>
  <path class="fil0" d="M471.018 471.018c80.6375,-80.6375 186.326,-120.958 292.012,-120.958 105.685,0 211.375,40.3205 292.012,120.958 80.6386,80.6375 120.958,186.327 120.958,292.012 0,105.686 -40.3193,211.375 -120.958,292.014 -80.6375,80.6375 -186.327,120.958 -292.012,120.958 -105.686,0 -211.375,-40.3205 -292.012,-120.958 -80.6386,-80.6386 -120.958,-186.327 -120.958,-292.014 0,-105.685 40.3193,-211.375 120.958,-292.012zm292.012 -72.9579c-93.4064,0 -186.812,35.6327 -258.075,106.896 -71.2642,71.263 -106.896,164.669 -106.896,258.075 0,93.4064 35.6327,186.813 106.896,258.076 71.263,71.263 164.668,106.896 258.075,106.896 93.4052,0 186.812,-35.6327 258.075,-106.896 71.263,-71.263 106.896,-164.669 106.896,-258.076 0,-93.4052 -35.6315,-186.812 -106.896,-258.075 -71.263,-71.263 -164.669,-106.896 -258.075,-106.896z"/>
  <path class="fil0" d="M1176.85 1021.57c-9.37087,-9.37087 -24.5669,-9.37087 -33.9378,0 -9.37087,9.37087 -9.37087,24.5669 0,33.9378l591.15 591.149 -87.4052 87.4052 -591.149 -591.15c-9.37087,-9.37087 -24.5669,-9.37087 -33.9378,0 -9.37087,9.37087 -9.37087,24.5669 0,33.9378l608.031 608.032 0.0862205 0.0885827c9.37205,9.37205 24.5681,9.37205 33.9402,0l-0.0011811 -0.0011811 121.256 -121.256 0.0885827 -0.0862205c9.37205,-9.37205 9.37205,-24.5681 0,-33.9402l-0.0011811 0.0011811 -608.119 -608.118z"/>
  <g id="_460809968">
   <path id="_460810736" class="fil1" d="M705.862 804.251l13.8673 0c6.42638,0 12.2622,2.5252 16.5697,6.63898 4.50118,3.52441 9.13229,6.32835 13.8248,8.22166 4.18937,1.69134 8.50985,2.61969 12.9071,2.61969 4.39725,0 8.71772,-0.928347 12.9071,-2.61969 5.17559,-2.08937 10.2744,-5.28307 15.2067,-9.32953l15.1878 18.4689 -15.2221 -18.5551c4.46811,-3.66496 9.86221,-5.44725 15.2221,-5.44489l0.056693 0 13.8118 0c34.8591,0 66.5351,14.2441 89.4804,37.1918 22.9465,22.9465 37.1918,54.6213 37.1918,89.4816l0 61.6052c0,13.2543 -10.7457,24 -24,24l-319.684 0c-13.2543,0 -24,-10.7457 -24,-24l0 -61.6052c0,-34.8603 14.2453,-66.5351 37.1918,-89.4816 22.9465,-22.9465 54.6213,-37.1918 89.4816,-37.1918zm5.94331 48l-5.94331 0c-21.6095,0 -41.2737,8.85946 -55.5437,23.1295 -14.2701,14.2701 -23.1295,33.9343 -23.1295,55.5437l0 37.6051 271.684 0 0 -37.6051c0,-21.6095 -8.85946,-41.2737 -23.1295,-55.5437 -14.2689,-14.2701 -33.9343,-23.1295 -55.5426,-23.1295l-5.94331 0c-6.54449,4.60748 -13.3925,8.42835 -20.5063,11.2984 -9.8882,3.99095 -20.1626,6.18189 -30.7205,6.18189 -10.5579,0 -20.8335,-2.19095 -30.7205,-6.18189 -7.11378,-2.87126 -13.9606,-6.69095 -20.5051,-11.2984z"/>
   <path id="_460810016" class="fil1" d="M763.031 509.531c35.9197,0 68.8784,8.9882 92.7367,28.0666 22.9441,18.3461 36.952,44.9268 36.952,80.4473 0,36.1181 -15.7181,84.2339 -40.5898,120.318 -22.7138,32.9528 -53.6185,57.0166 -89.0989,57.0166 -35.4827,0 -66.3851,-24.0626 -89.0989,-57.0166 -24.8717,-36.0839 -40.591,-84.1997 -40.591,-120.318 0,-35.5205 14.0079,-62.1012 36.952,-80.4473 23.8583,-19.0784 56.8182,-28.0666 92.7379,-28.0666zm62.9233 65.38c-14.7732,-11.8134 -37.2544,-17.3799 -62.9233,-17.3799 -25.6689,0 -48.15,5.56654 -62.9245,17.3799 -11.6516,9.31654 -18.7654,23.5051 -18.7654,43.1339 0,27.4902 12.3791,64.715 31.9666,93.1312 14.4213,20.9232 32.0752,36.2032 49.7233,36.2032 17.648,0 35.302,-15.2799 49.7233,-36.2032 19.5862,-28.4162 31.9654,-65.641 31.9654,-93.1312 0,-19.6288 -7.11378,-33.8173 -18.7654,-43.1339z"/>
  </g>
 </g>
 <rect class="fil2" width="2048" height="2048"/>
</svg>
